<svg xmlns="http://www.w3.org/2000/svg" viewBox="-3.00 -3.00 60.50 18.00" role="img" aria-label="microblx"><title>microblx</title><rect x="-3.0" y="-3.0" width="60.50" height="18.0" rx="3.4" fill="#0f1418"/><defs><clipPath id="bc"><rect width="12" height="12" rx="2.6"/></clipPath></defs><rect width="12" height="12" rx="2.6" fill="#1c242b"/><g clip-path="url(#bc)"><path d="M-1 3.6 H1.6" fill="none" stroke="#ffffff" stroke-width="0.6" stroke-linecap="butt" stroke-linejoin="round"/><path d="M6.8 3.6 L7.400 3.600 A0.8 0.8 0 0 1 8.200 4.400 L8.2 7.2" fill="none" stroke="#ffffff" stroke-width="0.6" stroke-linecap="butt" stroke-linejoin="round"/><path d="M5.4 8.4 L4.000 8.400 A0.8 0.8 0 0 1 3.200 7.600 L3.2 4.8" fill="none" stroke="#ffffff" stroke-width="0.6" stroke-linecap="butt" stroke-linejoin="round"/><path d="M10.4 8.4 H13" fill="none" stroke="#ffffff" stroke-width="0.6" stroke-linecap="butt" stroke-linejoin="round"/><rect x="1.6" y="2.4" width="5.2" height="2.4" rx="0" fill="#9bcd39"/><rect x="5.4" y="7.2" width="5.0" height="2.4" rx="0" fill="#9bcd39"/></g><g transform="translate(15.0,8.4)"><path d="M0.42827586206896545 0.0V-4.6H6.219221596302607Q6.516022013393427 -4.6 6.7560811742757085 -4.454508616645393Q6.99614033515799 -4.309017233290786 7.137666201271218 -4.068708575674341Q7.279192067384446 -3.8283999180578956 7.279192067384446 -3.5400295289181614V0.0H6.3400121823880315V-3.5065910960288136Q6.3400121823880315 -3.5666107819742545 6.2949974179289505 -3.6097499312475403Q6.249982653469869 -3.6528890805208265 6.189962967524428 -3.6528890805208265H4.483394058626859Q4.423374372681417 -3.6528890805208265 4.380235223408132 -3.6097499312475403Q4.337096074134846 -3.5666107819742545 4.337096074134846 -3.5065910960288136V0.0H3.382054120172914V-3.5065910960288136Q3.382054120172914 -3.5666107819742545 3.338914970899628 -3.6097499312475403Q3.295775821626342 -3.6528890805208265 3.235756135680901 -3.6528890805208265H1.5254359964117419Q1.4654163104663003 -3.6528890805208265 1.4222771611930143 -3.6097499312475403Q1.3791380119197285 -3.5666107819742545 1.3791380119197285 -3.5065910960288136V0.0Z" fill="#ffffff"/><path d="M8.406896551724136 0.0V-4.6H9.35400747120331V0.0ZM8.406896551724136 -5.155605828133796V-6.106896551724137H9.35400747120331V-5.155605828133796Z" fill="#9bcd39"/><path d="M11.417901505564595 0.0Q11.129531116424861 0.0 10.889222458808415 -0.1454913833546071Q10.648913801191972 -0.2909827667092142 10.503422417837363 -0.5312914243256591Q10.357931034482757 -0.771600081942104 10.357931034482757 -1.0599704710818378V-3.5400295289181614Q10.357931034482757 -3.8283999180578956 10.503422417837363 -4.068708575674341Q10.648913801191972 -4.309017233290786 10.889222458808415 -4.454508616645393Q11.129531116424861 -4.6 11.417901505564595 -4.6H15.020950736605247V-3.6528890805208265H11.451339938453943Q11.391320252508502 -3.6528890805208265 11.348181103235216 -3.6097499312475403Q11.30504195396193 -3.5666107819742545 11.30504195396193 -3.5065910960288136V-1.093408903971186Q11.30504195396193 -1.033389218025745 11.348181103235216 -0.9902500687524589Q11.391320252508502 -0.947110919479173 11.451339938453943 -0.947110919479173H15.032633001459596V0.0H11.417901505564595Z" fill="#ffffff"/><path d="M16.07620689655172 0.0V-3.5400295289181614Q16.07620689655172 -3.8283999180578956 16.221698279906327 -4.068708575674341Q16.367189663260937 -4.309017233290786 16.60880450966212 -4.454508616645393Q16.850419356063306 -4.6 17.14035717174473 -4.6H19.700795588457026V-3.6528890805208265H17.16961580052291Q17.109596114577467 -3.6528890805208265 17.066456965304184 -3.6097499312475403Q17.023317816030897 -3.5666107819742545 17.023317816030897 -3.5065910960288136V0.0Z" fill="#ffffff"/><path d="M21.482384264185285 0.0Q21.19401387504555 0.0 20.953705217429103 -0.1454913833546071Q20.71339655981266 -0.2909827667092142 20.567905176458055 -0.5312914243256591Q20.422413793103445 -0.771600081942104 20.422413793103445 -1.0599704710818378V-3.5400295289181614Q20.422413793103445 -3.8283999180578956 20.567905176458055 -4.068708575674341Q20.71339655981266 -4.309017233290786 20.953705217429103 -4.454508616645393Q21.19401387504555 -4.6 21.482384264185285 -4.6H24.033394058626858Q24.32984109017945 -4.6 24.56961442452346 -4.455031092159288Q24.809387758867473 -4.310062184318577 24.95325175947388 -4.068447337917392Q25.097115760080285 -3.826832491516207 25.097115760080285 -3.5400295289181614V-1.0599704710818378Q25.097115760080285 -0.771600081942104 24.953714278781263 -0.5312914243256591Q24.81031279748224 -0.2909827667092142 24.570253636599958 -0.1454913833546071Q24.330194475717676 0.0 24.033394058626858 0.0H21.482384264185285ZM21.515822697074633 -0.947110919479173H23.99995562573751Q24.05997531168295 -0.947110919479173 24.103114460956235 -0.9902500687524589Q24.14625361022952 -1.033389218025745 24.14625361022952 -1.093408903971186V-3.5065910960288136Q24.14625361022952 -3.5666107819742545 24.103114460956235 -3.6097499312475403Q24.05997531168295 -3.6528890805208265 23.99995562573751 -3.6528890805208265H21.515822697074633Q21.45580301112919 -3.6528890805208265 21.412663861855904 -3.6097499312475403Q21.36952471258262 -3.5666107819742545 21.36952471258262 -3.5065910960288136V-1.093408903971186Q21.36952471258262 -1.033389218025745 21.412663861855904 -0.9902500687524589Q21.45580301112919 -0.947110919479173 21.515822697074633 -0.947110919479173Z" fill="#ffffff"/><path d="M26.13275862068965 0.0V-6.106896551724137H27.079869540168822V-4.6H29.74749011658465Q30.037427932266073 -4.6 30.27904277866726 -4.454508616645393Q30.520657625068445 -4.309017233290786 30.664059106367468 -4.068708575674341Q30.80746058766649 -3.8283999180578956 30.80746058766649 -3.5400295289181614V-1.0599704710818378Q30.80746058766649 -0.771600081942104 30.664059106367468 -0.5312914243256591Q30.520657625068445 -0.2909827667092142 30.27904277866726 -0.1454913833546071Q30.037427932266073 0.0 29.74749011658465 0.0ZM27.229918755032426 -0.947110919479173H29.714051683695303Q29.774071369640744 -0.947110919479173 29.81721051891403 -0.9902500687524589Q29.860349668187318 -1.033389218025745 29.860349668187318 -1.093408903971186V-3.5065910960288136Q29.860349668187318 -3.5666107819742545 29.81721051891403 -3.6097499312475403Q29.774071369640744 -3.6528890805208265 29.714051683695303 -3.6528890805208265H27.229918755032426Q27.169899069086984 -3.6528890805208265 27.124884304627905 -3.6097499312475403Q27.079869540168822 -3.5666107819742545 27.079869540168822 -3.5065910960288136V-1.093408903971186Q27.079869540168822 -1.033389218025745 27.124884304627905 -0.9902500687524589Q27.169899069086984 -0.947110919479173 27.229918755032426 -0.947110919479173Z" fill="#ffffff"/><path d="M32.70479805728873 0.0Q32.416427668149 0.0 32.17611901053255 -0.1454913833546071Q31.935810352916107 -0.2909827667092142 31.790318969561497 -0.5312914243256591Q31.64482758620689 -0.771600081942104 31.64482758620689 -1.0599704710818378V-6.111076355835305H32.596118309797234V-1.093408903971186Q32.596118309797234 -1.033389218025745 32.63925745907052 -0.9902500687524589Q32.68239660834381 -0.947110919479173 32.74241629428925 -0.947110919479173H33.599073951711794V0.0H32.70479805728873Z" fill="#ffffff"/><path d="M34.37310344827586 0.0V-0.21274143593001696L36.11686202043437 -2.3396551724137926L34.37310344827586 -4.387258564069983V-4.6H35.43446557386105L36.73322906750592 -3.072522227573867L38.031563987411204 -4.6H39.09335468673597V-4.387258564069983L37.349596114577466 -2.3396551724137926L39.09710591710756 -0.21274143593001696V0.0H38.03574379152238L36.73322906750592 -1.5975713615522245L35.43446557386105 0.0Z" fill="#ffffff"/></g></svg>
